<svg width="120" height="152" viewBox="0 0 120 152" fill="none" xmlns="http://www.w3.org/2000/svg">
<path d="M43.5571 0.0240931C43.6964 0.0231634 43.6964 0.0231634 43.8384 0.022215C44.1441 0.020399 44.4498 0.019542 44.7555 0.0188511C44.9131 0.0183216 44.9131 0.0183216 45.0738 0.0177815C45.6301 0.0159134 46.1863 0.0147592 46.7426 0.0142185C47.314 0.0135356 47.8853 0.0105387 48.4567 0.0069816C48.8988 0.00464327 49.3409 0.00400584 49.7831 0.00381531C49.9935 0.00344018 50.204 0.00244715 50.4144 0.000796155C52.1282 -0.011685 53.6047 0.111481 54.9458 1.16772C56.0314 2.22691 57.3501 3.58663 57.4391 5.10001C57.4306 5.203 57.4222 5.30599 57.4134 5.4121C57.5449 5.42417 57.6764 5.43624 57.8119 5.44867C62.7506 6.10095 67.8154 9.79364 70.7482 13.3142C74.8196 18.2973 76.875 24.6773 75.8951 30.8784C75.8217 31.2964 75.7378 31.7116 75.6466 32.1267C75.626 32.2216 75.6054 32.3165 75.5841 32.4142C74.2447 38.3164 71.2096 44.0576 68.1594 49.3646C67.9883 49.6923 67.8881 49.9639 67.8142 50.318C67.78 50.4794 67.78 50.4794 67.7452 50.644C67.7231 50.7564 67.701 50.8688 67.6781 50.9846C67.6428 51.1594 67.6428 51.1594 67.6068 51.3378C67.4352 52.2148 67.3164 53.0817 67.284 53.9728C67.2769 54.0856 67.2699 54.1984 67.2626 54.3146C67.1452 57.3933 69.1995 60.4809 71.3968 62.7112C71.9848 63.2145 72.6385 63.6284 73.3085 64.0354C73.8017 64.3397 74.277 64.6663 74.7555 64.9895C74.9282 65.1047 75.1009 65.2198 75.2739 65.3347C75.3969 65.4165 75.5199 65.4982 75.6466 65.5824C76.8006 64.281 77.8187 62.8912 78.8518 61.5097C79.1202 61.1513 79.3897 60.7936 79.66 60.4363C79.7826 60.2738 79.9046 60.1109 80.026 59.9476C80.346 59.5186 80.6759 59.1014 81.0253 58.6917C81.7741 57.8674 81.7741 57.8674 82.1118 56.8815C82.0023 56.5553 81.8475 56.2746 81.6786 55.9702C79.4322 49.4649 81.7058 42.5035 85.0202 36.6598C86.4839 34.1316 88.2955 31.7101 90.4524 29.63C90.5959 29.4771 90.7387 29.3236 90.8809 29.1697C92.1186 27.8801 93.4795 26.6722 94.9765 25.6353C95.0491 25.584 95.1217 25.5326 95.1965 25.4797C98.9661 22.8204 103.436 20.7137 108.3 20.72C108.462 20.7202 108.625 20.7204 108.792 20.7206C110.072 20.7368 111.178 20.8826 112.387 21.2661C112.512 21.3022 112.637 21.3382 112.766 21.3753C115.267 22.1762 117.261 24.1043 118.405 26.2396C120.966 31.3391 120.135 37.3765 118.076 42.4941C116.712 45.7461 114.978 48.8246 112.661 51.6009C112.6 51.6746 112.539 51.7483 112.475 51.8242C111.753 52.6868 111.007 53.5198 110.2 54.3185C109.94 54.5761 109.689 54.8386 109.44 55.1041C108.569 56.0091 107.634 56.8124 106.601 57.5628C106.354 57.7433 106.11 57.9271 105.869 58.1148C103.103 60.2594 99.6984 61.9414 96.1674 62.7424C96.0716 62.7644 95.9758 62.7864 95.8771 62.809C95.3462 62.9195 94.8676 62.9689 94.3226 62.9502C93.1146 62.9222 93.1146 62.9222 92.0921 63.4435C91.4975 64.0993 91.0369 64.831 90.5713 65.5658C90.1521 66.2064 89.6756 66.8085 89.2015 67.4159C89.0179 67.6552 88.8345 67.8946 88.6515 68.1342C88.5629 68.2501 88.4743 68.366 88.383 68.4854C87.9027 69.1159 87.4275 69.7496 86.9524 70.3834C86.341 71.1992 85.7247 72.0118 85.1059 72.8228C85.3002 73.2288 85.5343 73.4862 85.8856 73.7903C86.3371 74.1911 86.7567 74.6041 87.1671 75.0396C87.4271 75.3098 87.6947 75.5724 87.9643 75.8346C88.7871 76.6373 89.5375 77.4789 90.2704 78.3503C90.4445 78.5559 90.6212 78.7593 90.7989 78.9622C94.7191 83.4849 97.8382 89.2564 97.1019 95.1595C96.9607 96.1151 96.7482 97.0146 96.3902 97.9224C96.0975 98.6771 95.9796 99.2445 96.0732 100.037C96.0823 100.116 96.0915 100.195 96.1009 100.276C96.1452 100.654 96.1914 101.032 96.2394 101.41C97.0897 108.1 95.9917 114.916 93.6056 121.259C93.5636 121.372 93.5216 121.486 93.4783 121.603C91.8159 126.085 89.4425 130.54 86.3803 134.365C86.1778 134.601 86.1778 134.601 86.2026 134.866C86.3419 134.904 86.4811 134.941 86.6246 134.98C91.611 136.353 91.611 136.353 92.9115 138.275C93.3582 139.089 93.4352 139.862 93.1857 140.741C92.9364 141.397 92.5595 141.932 92.0975 142.481C92.0302 142.563 91.9629 142.644 91.8935 142.729C90.7582 144.009 89.121 144.917 87.5735 145.726C87.4565 145.788 87.4565 145.788 87.3371 145.85C85.9137 146.587 84.4339 147.176 82.9124 147.724C82.7487 147.783 82.7487 147.783 82.5816 147.844C74.3797 150.81 65.2236 151.83 56.4538 151.968C56.225 151.972 56.225 151.972 55.9916 151.976C44.6794 152.153 30.6536 151.513 18.2224 143.924C17.156 142.922 16.3044 141.718 15.9015 140.361C15.7046 139.908 15.4859 139.728 15.0779 139.414C14.2292 138.738 13.4261 138.024 12.6274 137.3C12.507 137.192 12.3866 137.084 12.2625 136.972C11.4419 136.227 10.6966 135.446 9.97981 134.616C9.87002 134.49 9.87002 134.49 9.75801 134.361C4.32991 128.042 1.25021 120.579 0.246326 112.645C0.231791 112.533 0.217256 112.422 0.20228 112.307C0.0519655 110.953 0.0759172 109.588 0.074962 108.229C0.0748239 108.093 0.0746859 107.957 0.0745436 107.817C0.0765325 104.914 0.302566 102.096 0.906748 99.24C1.09934 98.2998 0.994289 97.5626 0.689798 96.6539C-0.852633 92.0298 0.352329 87.2729 2.71397 83.0593C4.02452 80.8315 5.59731 78.757 7.37508 76.8176C7.49012 76.6912 7.60517 76.5649 7.7237 76.4348C8.51939 75.5665 9.34166 74.7243 10.1878 73.8965C10.4077 73.6804 10.6257 73.4629 10.8436 73.2451C11.5367 72.555 12.2207 71.8795 13.0108 71.2795C13.3185 71.0369 13.6014 70.7774 13.8869 70.5134C14.4363 70.008 15.0066 69.539 15.6006 69.0778C15.74 68.9678 15.8794 68.8578 16.0188 68.7477C18.6545 66.6699 21.3969 64.7341 24.265 62.9287C27.0911 61.1493 30.1094 58.7567 30.8691 55.5488C31.1897 53.4725 30.8586 51.4879 29.8581 49.6036C29.7959 49.4839 29.7337 49.3641 29.6696 49.2408C29.2811 48.5411 28.8564 48.0244 28.2301 47.4897C26.5129 45.9691 25.1319 44.0077 23.9631 42.1135C23.9082 42.0254 23.8533 41.9373 23.7967 41.8465C21.2476 37.7245 19.9572 33.2051 19.9532 28.4831C19.9531 28.3836 19.953 28.2841 19.9529 28.1815C19.9554 26.5183 20.0519 24.9004 20.3988 23.2635C20.4216 23.1555 20.4444 23.0475 20.4678 22.9362C21.0188 20.432 21.9276 18.0129 23.2777 15.7734C23.3659 15.6222 23.4541 15.4711 23.5422 15.3199C24.5307 13.6561 25.8279 12.2677 27.2533 10.9048C27.3445 10.8152 27.4357 10.7256 27.5296 10.6332C30.3228 7.96694 34.3438 6.18008 38.2206 5.28727C38.3111 5.28727 38.4016 5.28727 38.4948 5.28727C38.4885 5.21598 38.4821 5.14469 38.4755 5.07124C38.4084 3.69702 38.86 2.33474 39.8657 1.29256C40.946 0.380973 42.0955 0.0315416 43.5571 0.0240931Z" fill="#0C0D0A"/>
<path d="M5.45619 97.2903C5.54667 97.2903 5.63715 97.2903 5.73037 97.2903C5.76616 97.355 5.80194 97.4197 5.83881 97.4863C6.53462 98.7361 7.22201 99.9441 8.19801 101.035C8.25545 101.1 8.31288 101.165 8.37206 101.231C9.59927 102.605 10.9128 103.812 12.4478 104.905C12.5261 104.962 12.6043 105.018 12.6849 105.076C14.8085 106.603 17.1187 107.871 19.5766 108.9C19.6827 108.944 19.7887 108.989 19.898 109.035C26.3803 111.725 33.0968 112.506 40.1403 112.645C39.9795 113.036 39.8114 113.373 39.5421 113.711C39.478 113.792 39.4139 113.874 39.3479 113.958C39.2786 114.045 39.2092 114.132 39.1378 114.221C38.9875 114.412 38.8374 114.603 38.6875 114.795C38.61 114.893 38.5326 114.992 38.4528 115.093C38.0833 115.568 37.7237 116.049 37.3642 116.53C36.6959 117.424 36.0209 118.312 35.3421 119.199C34.594 120.176 33.8486 121.155 33.113 122.14C32.7403 122.639 32.3639 123.136 31.9807 123.628C30.7554 125.211 29.6424 126.725 29.8585 128.749C30.2134 130.244 31.1174 131.349 32.4632 132.244C34.0524 133.162 35.6699 133.537 37.549 133.157C39.5778 132.533 40.6376 131.291 41.7685 129.711C42.0425 129.332 42.3253 128.958 42.6079 128.585C42.6701 128.503 42.7323 128.42 42.7964 128.336C43.4593 127.46 44.1277 126.588 44.7952 125.715C45.445 124.865 46.089 124.012 46.7297 123.157C47.4086 122.251 48.0967 121.352 48.7851 120.453C49.4298 119.61 50.0686 118.764 50.7039 117.915C51.3042 117.115 51.9123 116.319 52.5214 115.524C53.2508 114.572 53.9742 113.617 54.672 112.645C54.7538 112.668 54.8356 112.69 54.9199 112.714C55.7216 112.925 56.5244 113.089 57.3453 113.222C57.484 113.245 57.484 113.245 57.6256 113.269C59.1674 113.512 60.7111 113.549 62.272 113.55C62.3768 113.55 62.4817 113.55 62.5897 113.55C72.7602 113.537 82.9788 110.248 90.35 103.79C92.077 102.175 93.3677 100.32 94.4285 98.289C94.4737 98.289 94.519 98.289 94.5656 98.289C95.072 100.428 95.1699 102.615 95.1654 104.796C95.1654 104.914 95.1655 105.031 95.1655 105.153C95.1585 109.739 94.3716 114.405 92.7834 118.762C92.6966 119.017 92.6116 119.272 92.5265 119.528C92.2018 120.497 91.8318 121.443 91.4125 122.382C91.3664 122.486 91.3203 122.591 91.2728 122.698C89.9503 125.679 88.4441 128.494 86.6143 131.245C86.5202 131.388 86.5202 131.388 86.4242 131.534C85.2222 133.36 83.8624 135.103 82.3644 136.738C82.251 136.863 82.1375 136.988 82.0206 137.117C79.5694 139.797 79.5694 139.797 78.1146 140.858C77.9957 140.95 77.8767 141.042 77.7542 141.138C76.0414 142.404 73.8762 142.757 71.7741 143.23C71.6539 143.257 71.5338 143.284 71.4099 143.312C66.7058 144.371 61.9744 144.963 57.1396 145.227C56.9629 145.238 56.9629 145.238 56.7826 145.249C48.2839 145.768 38.8859 145.464 30.6639 143.362C30.1493 143.231 29.6306 143.118 29.1111 143.004C23.1375 141.688 18.0409 137.923 14.3671 133.492C14.2588 133.368 14.1505 133.244 14.0389 133.115C13.1695 132.115 12.3787 131.073 11.6253 129.997C11.5493 129.889 11.5493 129.889 11.4718 129.778C10.1137 127.82 8.90933 125.751 7.98488 123.592C7.81258 123.191 7.62693 122.799 7.43544 122.406C6.64717 120.683 6.16898 118.829 5.66584 117.023C5.59732 116.779 5.52578 116.535 5.45405 116.292C3.79875 110.211 4.17839 103.399 5.45619 97.2903Z" fill="#9BB832"/>
<path d="M93.0574 100.661C93.1026 100.661 93.1479 100.661 93.1945 100.661C93.2048 101.284 93.2122 101.908 93.2171 102.531C93.2191 102.743 93.2219 102.954 93.2255 103.165C93.2485 104.549 93.1603 105.803 92.7832 107.152C92.7539 107.259 92.7245 107.366 92.6943 107.476C91.816 110.445 89.5067 113.298 86.6141 114.892C85.1339 115.65 83.7849 116.055 82.0901 116.14C82.1498 116.265 82.2095 116.389 82.2711 116.517C84.2388 120.687 85.633 125.832 83.7694 130.231C83.4109 131.022 82.9544 131.704 82.3642 132.369C82.2444 132.511 82.2444 132.511 82.1222 132.655C80.4653 134.497 77.6726 135.771 75.0984 136.114C73.1871 136.266 71.2833 136.248 69.4777 135.615C69.3877 135.583 69.2977 135.552 69.2049 135.519C67.5391 134.926 66.0886 134.122 64.6795 133.118C64.3338 133.501 64.0886 133.91 63.8353 134.346C62.6624 136.353 61.2129 138.111 59.47 139.734C59.3678 139.835 59.2657 139.936 59.1605 140.039C57.7656 141.385 56.119 142.27 54.2605 142.98C54.1548 143.022 54.0492 143.064 53.9403 143.108C51.9688 143.848 49.5179 143.849 47.5438 143.13C43.2675 141.424 40.6913 138.034 38.8292 134.265C38.7578 134.12 38.7578 134.12 38.685 133.973C38.3579 133.291 38.3579 133.291 38.3579 132.868C38.6192 132.707 38.6192 132.707 38.9748 132.541C40.182 131.909 40.8789 130.959 41.6251 129.913C41.9453 129.466 42.2748 129.025 42.6077 128.585C42.6699 128.503 42.7321 128.42 42.7962 128.336C43.4591 127.46 44.1275 126.588 44.795 125.715C45.4448 124.866 46.0888 124.012 46.7295 123.157C47.4083 122.251 48.0965 121.352 48.7849 120.453C49.4296 119.61 50.0684 118.764 50.7037 117.915C51.304 117.115 51.9121 116.319 52.5212 115.524C53.2506 114.572 53.974 113.617 54.6718 112.645C54.7536 112.668 54.8354 112.69 54.9197 112.714C55.7214 112.925 56.5242 113.089 57.3451 113.222C57.4838 113.245 57.4838 113.245 57.6254 113.269C59.1672 113.512 60.7109 113.549 62.2718 113.55C62.3766 113.55 62.4815 113.55 62.5895 113.55C72.76 113.538 82.9786 110.249 90.3498 103.79C91.2667 102.936 92.1028 101.983 92.8185 100.983C92.8974 100.877 92.9762 100.77 93.0574 100.661Z" fill="#C85A2B"/>
<path d="M21.9073 71.6992C21.9526 71.6992 21.9978 71.6992 22.0444 71.6992C22.0464 71.813 22.0464 71.813 22.0483 71.9291C22.1113 74.9135 22.5776 77.491 24.7863 79.8134C24.9172 79.9679 24.9172 79.9679 25.0508 80.1255C26.8355 82.088 29.7307 83.0229 32.4217 83.2845C33.507 83.368 34.601 83.3476 35.6893 83.3486C35.9813 83.3498 36.2734 83.3511 36.5654 83.3524C37.3521 83.3558 38.1388 83.3577 38.9255 83.3593C39.75 83.3613 40.5744 83.3646 41.3988 83.3678C42.9573 83.3737 44.5157 83.3783 46.0742 83.3824C47.8496 83.3872 49.625 83.3933 51.4004 83.3996C55.05 83.4125 58.6997 83.4236 62.3493 83.4337C62.1967 83.6528 62.0439 83.8718 61.8911 84.0909C61.8061 84.2129 61.721 84.3349 61.6334 84.4605C61.3356 84.8837 61.0275 85.2991 60.7128 85.7119C60.6506 85.7938 60.5885 85.8758 60.5245 85.9602C59.8582 86.8377 59.1875 87.7125 58.5178 88.588C57.566 89.8333 56.6257 91.0857 55.6872 92.3395C54.7743 93.5589 53.8538 94.773 52.9225 95.9809C52.1502 96.9837 51.391 97.9946 50.6329 99.0065C49.712 100.236 48.7894 101.461 47.8176 102.658C47.7141 102.601 47.6105 102.543 47.5038 102.484C44.9282 101.094 42.1657 100.145 39.3557 99.2294C26.9702 95.1896 26.9702 95.1896 23.4153 92.4217C23.3012 92.336 23.187 92.2502 23.0694 92.1618C20.5967 90.2393 19.1661 87.4677 18.7542 84.5572C18.707 83.9278 18.6938 83.2997 18.6943 82.669C18.6942 82.5819 18.6941 82.4948 18.6941 82.405C18.7048 79.4454 19.4875 73.9027 21.9073 71.6992Z" fill="#9BB832"/>
<path d="M6.6895 99.2877C7.06844 99.6164 7.37001 99.9437 7.65771 100.341C8.98553 102.096 10.6063 103.594 12.4473 104.905C12.5256 104.962 12.6038 105.018 12.6844 105.076C14.808 106.603 17.1182 107.871 19.5761 108.9C19.6821 108.944 19.7882 108.989 19.8975 109.035C26.3798 111.724 33.0963 112.506 40.1398 112.645C39.979 113.036 39.8109 113.373 39.5416 113.711C39.4775 113.792 39.4134 113.874 39.3474 113.958C39.278 114.045 39.2087 114.132 39.1373 114.221C38.987 114.412 38.8369 114.603 38.6869 114.795C38.6095 114.893 38.5321 114.992 38.4523 115.093C38.0828 115.568 37.7232 116.049 37.3637 116.53C36.6954 117.424 36.0204 118.312 35.3416 119.199C34.5935 120.176 33.8481 121.155 33.1125 122.14C32.7398 122.639 32.3634 123.136 31.9802 123.628C30.7549 125.211 29.6419 126.725 29.8579 128.749C30.2129 130.244 31.1169 131.349 32.4627 132.244C33.8775 133.062 35.0603 133.272 36.7125 133.368C36.7125 133.409 36.7125 133.45 36.7125 133.492C36.5344 133.508 36.3562 133.523 36.1727 133.539C35.4337 133.672 34.8843 133.964 34.2534 134.319C31.036 136.119 27.1517 137.265 23.3788 136.501C20.9179 135.841 19.004 134.324 17.7664 132.306C15.3814 128.237 16.0465 123.284 17.3826 119.012C17.4279 118.888 17.4731 118.764 17.5197 118.637C17.364 118.642 17.2083 118.648 17.0479 118.653C16.3998 118.652 15.8204 118.535 15.1977 118.38C15.0286 118.338 15.0286 118.338 14.856 118.295C11.6197 117.464 8.62561 115.946 6.82659 113.269C4.38774 109.238 5.34092 103.674 6.55241 99.4125C6.59765 99.3713 6.64289 99.3301 6.6895 99.2877Z" fill="#C85A2B"/>
<path d="M43.432 1.05399C43.5302 1.05276 43.6283 1.05153 43.7294 1.05026C44.0535 1.0465 44.3777 1.0438 44.7018 1.04142C44.8131 1.04059 44.9243 1.03976 45.039 1.03891C45.6285 1.03481 46.2181 1.03173 46.8076 1.02927C47.2932 1.02703 47.7786 1.02266 48.2641 1.01636C48.8526 1.00873 49.4409 1.0049 50.0294 1.00368C50.2524 1.00261 50.4754 1.00026 50.6984 0.996536C52.2211 0.972493 53.394 1.12354 54.5797 2.07336C55.3542 2.77122 55.9303 3.78625 55.9723 4.77902C55.9664 4.88844 55.9605 4.99787 55.9544 5.11061C56.0879 5.12279 56.3348 5.73169 56.4724 5.74423C61.4889 6.40232 66.52 9.53122 69.4991 13.0832C73.6344 18.1107 75.7222 24.5476 74.7269 30.804C74.6524 31.2257 74.5672 31.6446 74.4745 32.0634C74.4431 32.207 74.4431 32.207 74.4111 32.3535C73.3748 36.8889 71.2196 41.2521 69.0438 45.4139C68.9605 45.5737 68.8772 45.7336 68.794 45.8934C68.5739 46.3152 68.3526 46.7365 68.1303 47.1573C68.0437 47.3215 67.9574 47.4857 67.8713 47.6501C67.751 47.8793 67.6294 48.1081 67.5077 48.3368C67.4379 48.4686 67.3682 48.6004 67.2964 48.7362C67.116 49.0308 66.9557 49.2257 66.6765 49.4442C66.8505 48.7762 67.0577 48.1359 67.3293 47.4945C67.3654 47.4082 67.4016 47.3218 67.4389 47.2329C67.8114 46.3545 68.2239 45.4924 68.6391 44.63C69.9823 41.8296 71.1761 38.933 71.2718 35.8419C71.2746 35.7551 71.2775 35.6682 71.2804 35.5788C71.4859 28.3143 68.9797 20.8434 63.396 15.5057C63.2838 15.4004 63.1716 15.295 63.0561 15.1864C62.933 15.0654 62.933 15.0654 62.8075 14.9419C59.3298 11.6109 53.8088 9.78484 48.8242 9.63096C42.873 9.51062 37.1963 10.6294 32.5605 14.1789C32.4442 14.267 32.3279 14.3552 32.208 14.446C31.3369 15.1281 30.6115 15.8691 29.9148 16.6978C29.8588 16.7642 29.8027 16.8306 29.745 16.899C25.8374 21.571 24.3164 27.2261 24.31 33.008C24.3097 33.1574 24.3097 33.1574 24.3094 33.3098C24.3101 34.8965 24.4179 36.4238 24.7625 37.983C24.8102 38.2204 24.8102 38.2204 24.8588 38.4627C25.5794 41.8032 27.2311 44.7762 29.3578 47.555C29.3118 47.6381 29.2659 47.7213 29.2185 47.8069C25.2144 44.0823 22.7167 39.1021 21.6345 34.0479C21.5879 33.8314 21.5398 33.6152 21.4895 33.3994C20.0541 27.2024 21.6843 20.0663 25.4213 14.7638C26.0919 13.8425 26.8167 13.0036 27.6601 12.2055C27.9719 11.9135 27.9719 11.9135 28.2536 11.5841C30.6492 8.89097 35.2307 6.72149 38.966 6.1182C38.9595 6.00552 38.953 5.89285 38.9464 5.77676C38.8987 4.33372 39.1916 3.34177 40.21 2.21972C41.1595 1.36902 42.1279 1.06871 43.432 1.05399Z" fill="#9BB832"/>
<path d="M45.2025 34.535C45.6833 34.6846 46.0433 35.0025 46.4293 35.2945C46.6128 35.4308 46.7963 35.567 46.9798 35.7031C47.0731 35.7726 47.1663 35.8421 47.2623 35.9136C47.7001 36.2376 48.1441 36.5542 48.5885 36.8705C49.1105 37.2426 49.6311 37.6161 50.1479 37.994C50.691 37.7905 51.08 37.4498 51.5017 37.089C51.5793 37.0245 51.6569 36.96 51.7368 36.8936C52.1707 36.5285 52.5741 36.1536 52.9594 35.7455C54.1308 34.5276 54.1308 34.5276 54.8476 34.4499C55.3267 34.5452 55.733 34.69 56.18 34.8731C56.4993 34.976 56.8192 35.0774 57.1396 35.1774C57.2997 35.2313 57.4598 35.2852 57.6248 35.3408C58.3682 35.586 59.1246 35.7888 59.8814 35.9967C61.305 36.3944 62.7204 36.8112 64.1313 37.245C63.0215 39.3677 61.7768 41.2564 60.0185 42.9874C59.9127 43.0926 59.8068 43.1979 59.6977 43.3063C58.1521 44.7774 56.2312 45.9288 54.1236 46.6076C54.0209 46.642 53.9182 46.6765 53.8124 46.712C50.8163 47.6771 47.4022 47.3577 44.5449 46.1346C43.9839 45.8876 43.4317 45.6265 42.8821 45.3593C42.7359 45.2883 42.5898 45.2173 42.4392 45.1442C41.3659 44.5981 40.4041 43.9435 39.4548 43.2371C39.3767 43.1789 39.2985 43.1208 39.218 43.0609C35.598 40.3462 35.598 40.3462 34.7937 38.9927C34.9308 38.6182 34.9308 38.6182 35.3116 38.4236C35.4814 38.353 35.6519 38.2839 35.823 38.2159C35.9147 38.1782 36.0064 38.1406 36.1009 38.1017C36.4014 37.9787 36.7028 37.8576 37.0043 37.7365C37.2117 37.6521 37.419 37.5676 37.6262 37.483C38.935 36.9499 40.2486 36.4268 41.5652 35.9101C45.1005 34.521 45.1005 34.521 45.2025 34.535Z" fill="#CB6503"/>
<path d="M67.2674 25.2528C67.504 25.4191 67.7382 25.5883 67.97 25.76C68.1025 25.8559 68.2351 25.9518 68.3716 26.0506C69.1055 26.6097 69.1055 26.6097 69.3409 26.8835C69.3481 27.6988 68.5251 28.3084 67.97 28.8809C67.8848 28.9705 67.7997 29.0601 67.7119 29.1525C66.0149 30.8215 63.3722 31.9397 60.8841 32.0563C57.4124 31.9284 54.6059 30.2546 52.1124 28.1996C51.8 27.8889 51.6543 27.6568 51.519 27.258C55.7953 22.9029 61.9288 21.8349 67.2674 25.2528Z" fill="#10110E"/>
<path d="M45.6065 25.2528C45.8431 25.4191 46.0773 25.5883 46.3091 25.76C46.4417 25.8559 46.5742 25.9518 46.7108 26.0506C47.4447 26.6097 47.4447 26.6097 47.68 26.8835C47.6872 27.6988 46.8642 28.3084 46.3091 28.8809C46.2239 28.9705 46.1388 29.0601 46.051 29.1525C44.354 30.8215 41.7114 31.9397 39.2232 32.0563C35.7515 31.9284 32.945 30.2546 30.4515 28.1996C30.1391 27.8889 29.9934 27.6568 29.8582 27.258C34.1344 22.9029 40.2679 21.8349 45.6065 25.2528Z" fill="#10110E"/>
<path d="M45.3554 89.0986C46.3056 89.8139 46.8813 90.7378 47.2693 91.7977C47.3982 93.2246 47.2293 94.5938 46.284 95.7768C45.1864 96.9284 43.995 97.5264 42.3185 97.7122C40.8438 97.7662 39.5792 97.3218 38.4955 96.4166C37.5447 95.5774 36.9037 94.5968 36.8226 93.3762C36.8009 91.7666 37.1161 90.5808 38.383 89.3961C40.4223 87.6861 43.1018 87.6132 45.3554 89.0986Z" fill="#E5E5E5"/>
<path d="M29.1725 83.0594C30.5409 83.7118 31.5547 84.719 32.0514 86.0555C32.4188 87.1354 32.2762 88.4029 31.7772 89.426C30.9446 90.8206 29.8865 91.6298 28.2289 92.1246C26.7171 92.3735 25.3148 92.1916 24.0144 91.4624C22.9355 90.7641 22.1066 89.8578 21.7695 88.677C21.5213 87.101 21.6852 85.7463 22.7292 84.4326C24.3224 82.749 26.9164 82.1244 29.1725 83.0594Z" fill="#E5E5E5"/>
<path d="M35.5779 134.008C37.2625 134.596 38.3393 135.271 39.1592 136.761C39.7385 137.956 39.6365 139.266 39.1808 140.483C38.515 141.844 37.4212 142.685 35.9239 143.247C34.6909 143.546 33.0915 143.537 31.938 143.02C30.8997 142.444 30.1688 141.836 29.5845 140.858C29.5277 140.764 29.471 140.671 29.4126 140.575C28.8887 139.572 28.8368 138.427 29.1459 137.357C29.3854 136.787 29.6494 136.161 30.2636 135.857C30.3641 135.824 30.4646 135.791 30.5682 135.757C30.6808 135.719 30.7934 135.68 30.9094 135.641C31.0292 135.601 31.149 135.562 31.2724 135.521C32.1672 135.215 32.9826 134.885 33.7914 134.421C34.8521 133.85 34.8521 133.85 35.5779 134.008Z" fill="#E5E5E5"/>
<path d="M113.073 30.5037C113.119 30.5037 113.164 30.5037 113.21 30.5037C113.529 37.8124 110.004 45.5408 104.625 50.8908C104.381 51.129 104.135 51.365 103.888 51.6008C103.787 51.6994 103.686 51.798 103.582 51.8997C101.19 54.1687 97.6117 56.2915 94.067 56.4059C91.9231 56.4131 90.1387 55.8698 88.5773 54.5193C87.309 53.3332 86.3884 51.8368 85.9292 50.2276C85.9971 50.104 85.9971 50.104 86.0663 49.9779C86.1082 50.0597 86.1501 50.1414 86.1932 50.2256C87.1783 52.0147 88.5621 53.1995 90.6299 53.8731C93.3259 54.5948 95.9455 53.6876 98.336 52.5682C99.825 51.8184 101.095 50.8411 102.319 49.7758C102.509 49.6109 102.701 49.4481 102.893 49.2855C108.487 44.413 111.223 37.1577 113.073 30.5037Z" fill="#E5E5E5"/>
<path d="M8.47188 115.267C8.97091 115.442 9.37912 115.747 9.80852 116.031C12.0442 117.464 14.4619 118.122 17.1086 118.637C17.203 119.948 16.7939 121.001 15.862 122.008C14.8411 122.983 13.6624 123.51 12.1702 123.559C10.6673 123.569 9.49889 123.274 8.33479 122.382C7.04673 121.133 6.61398 119.934 6.6522 118.237C6.74305 117.089 7.35185 116.224 8.19769 115.392C8.28818 115.35 8.37866 115.309 8.47188 115.267Z" fill="#E5E5E5"/>
<path d="M78.5821 87.4643C79.2097 87.8205 80.0131 88.2857 80.3085 88.9262C79.7744 90.9956 77.7319 92.8299 75.9216 94.0444C75.8043 94.1238 75.6869 94.2031 75.566 94.2848C75.0192 94.6437 74.4588 94.9824 73.8824 95.3006C73.7387 95.38 73.7387 95.38 73.5921 95.461C73.3169 95.5424 73.3169 95.5424 73.0282 95.4503C72.6613 95.2277 72.3835 94.9622 72.0831 94.6686C71.9671 94.5605 71.8512 94.4523 71.7318 94.3409C71.0665 93.5952 70.7824 92.6511 70.8055 91.7022C70.8773 91.2436 71.1341 90.9103 71.4319 90.549C71.4929 90.4713 71.554 90.3935 71.6169 90.3134C71.748 90.1464 71.8801 89.9801 72.0131 89.8144C72.2288 89.5394 72.432 89.2589 72.6341 88.9755C72.7731 88.7847 72.9122 88.5941 73.0513 88.4035C73.1453 88.2689 73.1453 88.2689 73.2412 88.1316C74.4539 86.5119 76.8301 86.6097 78.5821 87.4643Z" fill="#E5E5E5"/>
<path d="M86.066 115.321C87.4371 115.972 88.4414 116.888 88.9824 118.213C89.4078 119.49 89.3356 120.72 88.652 121.903C88.3122 122.425 87.9349 122.848 87.4369 123.256C87.3351 123.341 87.2333 123.426 87.1284 123.514C86.2646 124.068 85.4598 124.281 84.4209 124.38C84.4007 124.222 84.3806 124.065 84.3598 123.903C84.0241 121.453 83.3093 119.165 82.318 116.871C82.2235 116.63 82.1541 116.389 82.0903 116.141C82.2557 116.109 82.4212 116.077 82.5916 116.044C82.8129 116.001 83.0343 115.958 83.2556 115.914C83.4184 115.883 83.4184 115.883 83.5844 115.852C84.1292 115.744 84.643 115.62 85.162 115.433C85.6547 115.267 85.6547 115.267 86.066 115.321Z" fill="#E5E5E5"/>
<path d="M63.8572 134.242C64.3935 134.5 64.6991 134.753 65.0397 135.209C65.1178 135.311 65.1959 135.414 65.2764 135.519C65.7731 136.278 65.9874 136.898 65.9736 137.768C65.9725 137.861 65.9713 137.954 65.9701 138.05C65.9263 139.363 65.4252 140.42 64.4056 141.357C63.9711 141.689 63.5231 141.969 63.0347 142.231C62.9088 142.299 62.9088 142.299 62.7803 142.368C61.7405 142.817 60.1521 142.757 59.0676 142.465C58.4141 142.227 57.8426 141.858 57.2769 141.482C57.6594 141.123 58.0503 140.785 58.4678 140.46C60.7046 138.683 62.3179 136.531 63.8572 134.242Z" fill="#E5E5E5"/>
<path d="M80.5821 78.5652C82.0269 80.5386 81.6621 84.3244 81.2274 86.5326C81.0415 87.3639 80.7866 88.1369 80.445 88.9265C80.0337 88.8016 80.0337 88.8016 79.751 88.4661C79.134 87.7639 78.1587 87.2594 77.1907 87.0842C76.0925 86.9771 75.0571 87.0021 74.0017 87.3036C74.7248 86.2429 75.4945 85.2151 76.275 84.189C76.5182 83.8688 76.7599 83.5478 77.0015 83.2267C77.7113 82.2842 78.4264 81.345 79.1426 80.4065C79.2379 80.2815 79.3332 80.1566 79.4314 80.0278C79.5663 79.8513 79.5663 79.8513 79.7039 79.6711C79.784 79.5662 79.8641 79.4612 79.9467 79.3531C80.1535 79.0868 80.3656 78.825 80.5821 78.5652Z" fill="#9BB832"/>
<path d="M61.1155 23.2635C63.6782 23.0552 66.3408 24.5029 68.2459 25.9333C68.381 26.041 68.5162 26.1487 68.6555 26.2596C68.7893 26.3634 68.9231 26.4672 69.0609 26.5741C69.341 26.8837 69.341 26.8837 69.3501 27.1934C69.0451 27.8495 68.4828 28.3523 67.9701 28.8811C67.8849 28.9707 67.7997 29.0604 67.7119 29.1527C66.5239 30.3212 64.9396 31.0968 63.309 31.6275C63.1478 31.6815 62.9866 31.7356 62.8206 31.7913C62.159 31.9118 61.5135 31.8971 60.8413 31.8771C61.0449 31.7535 61.0449 31.7535 61.2526 31.6275C62.3399 30.9356 62.8405 30.0778 63.1183 28.9021C63.3418 27.2513 63.313 25.6029 62.2208 24.1998C61.8928 23.835 61.5401 23.5365 61.1155 23.2635Z" fill="#E5E5E5"/>
<path d="M39.4551 23.2632C41.9272 23.0795 44.4574 24.3879 46.3097 25.7599C46.4422 25.8558 46.5747 25.9517 46.7113 26.0506C47.4452 26.6096 47.4452 26.6096 47.6806 26.8834C47.6877 27.6987 46.8647 28.3083 46.3097 28.8808C46.2245 28.9704 46.1393 29.0601 46.0515 29.1524C44.8635 30.3209 43.2792 31.0965 41.6486 31.6272C41.4874 31.6812 41.3262 31.7353 41.1602 31.791C40.4986 31.9115 39.8531 31.8968 39.1809 31.8768C39.3845 31.7532 39.3845 31.7532 39.5922 31.6272C40.6636 30.9271 41.2336 30.0552 41.5115 28.8808C41.6682 27.1133 41.6345 25.3941 40.3499 23.9654C40.0754 23.6994 39.7824 23.4736 39.4551 23.2632Z" fill="#E5E5E5"/>
<path d="M59.7445 23.2635C59.6003 23.3871 59.6003 23.3871 59.4532 23.5131C58.1175 24.7433 57.6489 26.0356 57.6447 27.7556C57.6724 29.044 58.123 30.2727 59.0591 31.2529C59.3987 31.4992 59.3987 31.4992 59.7445 31.6274C59.8491 31.6763 59.9538 31.7252 60.0616 31.7756C60.1761 31.8258 60.1761 31.8258 60.2929 31.8771C57.6328 31.9447 55.0759 30.5988 53.1641 29.0059C53.0369 28.9075 52.9097 28.8092 52.7786 28.7079C51.7473 27.9009 51.7473 27.9009 51.519 27.2582C53.4864 25.2546 56.6538 23.1607 59.7445 23.2635Z" fill="#E5E5E5"/>
<path d="M38.2207 23.2632C38.0765 23.3598 38.0765 23.3598 37.9294 23.4583C36.8079 24.3242 36.2596 25.3043 36.0273 26.6338C35.9002 28.2424 36.1233 29.6961 37.1909 31.0357C37.456 31.3132 37.7156 31.4772 38.0836 31.6272C38.1883 31.6761 38.2929 31.725 38.4007 31.7754C38.5152 31.8256 38.5152 31.8256 38.632 31.8768C35.9146 32.0455 33.2843 30.4238 31.3024 28.8925C30.0822 27.9186 30.0822 27.9186 29.8582 27.2579C31.8964 25.1821 35.0447 23.1747 38.2207 23.2632Z" fill="#E5E5E5"/>
<path d="M61.1151 84.8069C61.0272 85.2475 60.8341 85.5387 60.5582 85.907C60.4595 86.039 60.3609 86.1709 60.2593 86.3069C59.6891 87.0589 59.1157 87.8089 58.5415 88.5584C57.8429 89.4705 57.1508 90.3864 56.4641 91.3059C56.3962 91.3966 56.3284 91.4873 56.2585 91.5807C56.2 91.6592 56.1414 91.7376 56.0811 91.8185C56.0232 91.894 55.9653 91.9695 55.9056 92.0473C55.8361 92.1394 55.7666 92.2314 55.6951 92.3262C55.6288 92.3989 55.5626 92.4717 55.4943 92.5467C55.4039 92.5467 55.3134 92.5467 55.2202 92.5467C54.9931 92.277 54.9931 92.277 54.7403 91.9147C54.6569 91.7974 54.5735 91.6801 54.4876 91.5592C53.823 90.4303 53.7562 88.9335 54.0806 87.6918C54.2084 87.4144 54.3507 87.1786 54.5347 86.9291C54.596 86.8427 54.6573 86.7563 54.7205 86.6673C56.0881 84.8811 58.8064 83.7473 61.1151 84.8069Z" fill="#E5E5E5"/>
<path d="M70.7117 91.5481C70.7569 91.5481 70.8022 91.5481 70.8488 91.5481C70.8689 91.6772 70.8689 91.6772 70.8895 91.809C71.1746 93.4408 71.903 94.5133 73.1793 95.6676C68.7439 97.5293 68.7439 97.5293 67.0273 98.1643C66.9177 98.2057 66.8081 98.247 66.6952 98.2896C65.9637 98.5541 65.9637 98.5541 65.5022 98.414C66.5588 97.0015 67.6232 95.5941 68.6968 94.1922C69.0952 93.672 69.4933 93.1517 69.8864 92.6282C69.9446 92.5508 70.0028 92.4735 70.0628 92.3938C70.2107 92.1968 70.3581 91.9995 70.5055 91.8021C70.5735 91.7183 70.6416 91.6344 70.7117 91.5481Z" fill="#9BB832"/>
<path d="M53.0268 95.7923C51.9276 97.3066 50.803 98.805 49.6509 100.286C49.5926 100.362 49.5342 100.438 49.474 100.515C49.3366 100.691 49.1944 100.864 49.0512 101.035C49.0059 101.035 48.9607 101.035 48.9141 101.035C48.8305 99.449 49.004 98.3109 50.1393 97.0543C50.8233 96.4173 51.9875 95.4418 53.0268 95.7923Z" fill="#E5E5E5"/>
<path d="M17.1086 118.637C17.2444 118.637 17.3802 118.637 17.5201 118.637C17.3808 119.32 17.2361 119.981 16.9715 120.634C16.7976 120.178 16.8677 119.824 16.9629 119.355C16.9896 119.22 17.0163 119.086 17.0438 118.947C17.0652 118.845 17.0866 118.743 17.1086 118.637Z" fill="#AAB947"/>
</svg>
