<svg width="56" height="56" viewBox="0 0 56 56" fill="none" xmlns="http://www.w3.org/2000/svg">
<path d="M39.9146 39.9H25.9146V20.9526L38.0198 27.5842L39.9146 39.9Z" fill="black"/>
<path d="M28.501 36.5559C33.5209 36.5559 37.5904 32.4865 37.5904 27.4665C37.5904 22.4466 33.5209 18.3772 28.501 18.3772C23.4811 18.3772 19.4116 22.4466 19.4116 27.4665C19.4116 32.4865 23.4811 36.5559 28.501 36.5559Z" fill="#FFB6B6"/>
<path d="M23.2831 37.9L22.8725 33.7491L31.0726 32.2158L35.9147 44.0053L27.4937 53.6895L21.4937 41.9L23.2831 37.9Z" fill="#FFB6B6"/>
<path d="M48.1096 47.4832C48.0075 47.5895 47.9033 47.6947 47.7991 47.799C47.4685 48.1295 47.1317 48.4505 46.7875 48.7621C41.6296 53.44 35.0117 56 28.0001 56C21.5359 56 15.4064 53.8242 10.4475 49.819C10.4443 49.8169 10.4422 49.8148 10.4391 49.8116C10.2885 49.6905 10.1401 49.5674 9.9917 49.4421C10.018 49.3663 10.0464 49.2916 10.0749 49.2179C11.6696 45.0632 14.8191 43.0305 16.7306 42.1411C17.678 41.7 18.3212 41.539 18.3212 41.539L20.5654 37.4969L22.1454 40.4442L23.3096 42.6169L28.0864 51.5295L32.2075 41.2684L33.4843 38.0874L33.8117 37.2726L35.3685 38.4842L36.8422 39.6305L39.8096 40.2853L42.217 40.8169L45.4864 41.539C46.8085 42.6158 47.6128 44.6642 48.0622 47.2095C48.0791 47.3 48.0949 47.3916 48.1096 47.4832Z" fill="#9BB832"/>
<path d="M23.72 17.1372C24.8272 15.2774 26.8606 14.0013 29.0168 13.8133C31.1731 13.6252 33.3967 14.5299 34.8091 16.1699C35.6508 17.1472 36.2027 18.3441 37.0231 19.3393C38.7886 21.4809 41.7991 22.7331 42.5704 25.3994C42.9069 26.5628 42.7392 27.805 42.5689 29.0041C42.423 30.0319 42.277 31.0597 42.1311 32.0875C42.0175 32.8874 41.9085 33.7306 42.2085 34.4807C42.5603 35.3608 43.4024 35.9373 43.9468 36.7131C44.8733 38.0333 44.8055 39.9661 43.789 41.2182C43.3481 41.7612 42.7637 42.1707 42.3015 42.6956C41.8393 43.2206 41.4965 43.9383 41.6901 44.6104C42.0609 45.8979 44.08 46.2067 44.3015 47.5281C44.4147 48.2037 43.9481 48.8784 43.3367 49.1873C42.7253 49.4963 42.0055 49.5052 41.3255 49.4226C38.7409 49.1084 36.3479 47.4935 35.0896 45.2142C33.8312 42.9349 33.7396 40.0494 34.8508 37.6948C35.7635 35.761 37.4598 34.0522 37.4413 31.9138C37.4312 30.7489 36.8969 29.6609 36.3744 28.6196C35.305 26.4885 34.2356 24.3574 33.1662 22.2263C32.5934 21.0847 31.9286 19.8545 30.7493 19.3641C29.8378 18.9851 28.8036 19.1321 27.8288 19.2871C26.8539 19.4421 25.8213 19.593 24.9071 19.2206C23.9929 18.8482 23.3022 17.7417 23.7378 16.8558" fill="black"/>
<path d="M25.3127 17.2343C23.5567 16.6562 21.5867 17.5842 20.3979 19C19.209 20.4158 18.6323 22.2322 18.0829 23.9975C17.7682 25.0086 17.4536 26.0197 17.1389 27.0309C16.8428 27.9821 16.5468 28.9333 16.2508 29.8844C15.9026 31.0032 15.5516 32.1919 15.8373 33.3282C16.0439 34.1498 16.5755 34.8957 16.5869 35.7428C16.5989 36.6276 16.0448 37.4043 15.5592 38.1441C15.0736 38.8838 14.6178 39.7627 14.8491 40.6168C15.201 41.916 17.0072 42.63 16.9082 43.9723C16.8752 44.4203 16.6161 44.8347 16.6208 45.2838C16.6268 45.8553 17.0742 46.3491 17.5984 46.5768C18.1227 46.8045 18.7123 46.8169 19.2837 46.8068C21.0365 46.776 22.7861 46.5678 24.4972 46.1866C25.1555 46.0399 25.825 45.86 26.373 45.4667C26.9209 45.0735 27.3297 44.4221 27.2584 43.7514C27.1473 42.7063 26.0236 42.1133 25.4565 41.2284C24.8995 40.3592 24.9125 39.2579 24.6723 38.2539C24.3422 36.8741 23.527 35.6695 22.915 34.3895C20.6143 29.5772 21.4197 23.4434 24.8847 19.3883C25.1911 19.0298 25.5258 18.6691 25.6536 18.2151C25.7814 17.7611 25.6167 17.1828 25.1726 17.024" fill="black"/>
</svg>
