<svg width="56" height="56" viewBox="0 0 56 56" fill="none" xmlns="http://www.w3.org/2000/svg">
<path d="M28.501 36.5556C33.5209 36.5556 37.5904 32.4862 37.5904 27.4663C37.5904 22.4463 33.5209 18.3769 28.501 18.3769C23.4811 18.3769 19.4116 22.4463 19.4116 27.4663C19.4116 32.4862 23.4811 36.5556 28.501 36.5556Z" fill="#CE9578"/>
<path d="M20.9775 38.5909L22.8723 33.7488L32.6617 32.2751L33.7136 42.9937L23.8188 43.2043L20.9775 38.5909Z" fill="#CE9578"/>
<path d="M37.6782 29.1433C37.5602 29.6159 37.3218 30.7412 36.9494 30.7467C36.6451 30.7511 36.3539 25.8694 36.6578 25.0619C37.0069 24.1342 36.0895 22.9608 35.3984 22.3584C34.1559 21.2753 31.3977 23.601 28.5931 22.5474C28.5187 22.5195 28.5335 22.5227 27.6479 22.1693C24.9226 21.082 24.7794 21.0506 24.6232 21.0351C23.3021 20.9044 21.6899 21.9855 21.0315 23.3036C20.3471 24.6737 20.9189 25.8489 20.2754 29.1638C20.2004 29.5502 20.0826 30.1008 19.8973 30.109C19.5585 30.1237 19.2278 28.3144 19.1411 27.8405C18.7782 25.855 18.4283 23.9408 19.1411 21.7913C19.2189 21.5568 19.6981 20.6866 20.6534 18.9557C22.0297 16.4622 22.7219 15.2107 22.9219 14.9859C24.3565 13.3726 26.9678 11.9009 29.1602 12.5284C30.2683 12.8455 30.0696 13.3554 31.4286 13.8516C33.8505 14.7359 35.9554 13.6545 36.3436 14.4188C36.5493 14.8236 35.9739 15.1574 35.9656 15.9311C35.9513 17.2586 37.6302 17.6422 38.6121 18.9557C39.1399 19.6618 40.0434 19.6694 37.6782 29.1433Z" fill="black"/>
<path d="M48.9388 46.5905C48.5724 47.0021 48.1925 47.4053 47.7988 47.799C42.5104 53.0874 35.4788 56 27.9998 56C21.5356 56 15.4061 53.8242 10.4472 49.819C10.444 49.8169 10.4419 49.8147 10.4388 49.8116C9.78089 49.2811 9.14404 48.7169 8.5293 48.1211C8.54086 48.0285 8.55351 47.9369 8.56718 47.8463C8.6535 47.2358 8.74931 46.6537 8.85665 46.1179C9.73561 41.7263 21.3009 37.1158 21.6019 36.9958C21.6061 36.9947 21.6082 36.9937 21.6082 36.9937C21.6082 36.9937 23.0967 42.48 29.4746 42.4095C33.8188 42.3621 32.9767 36.9937 32.9767 36.9937C32.9767 36.9937 33.0293 37.0042 33.1282 37.0253C34.383 37.2916 43.0946 39.2053 46.5314 41.8169C47.5788 42.6126 48.3303 44.3074 48.8703 46.3284C48.8935 46.4148 48.9156 46.5032 48.9388 46.5905Z" fill="#C85A2B"/>
</svg>
